<svg version="1" xmlns="http://www.w3.org/2000/svg" width="933.333" height="933.333" viewBox="0 0 700.000000 700.000000"><path d="M251 88.6c-36.3 6-62 36.7-61.3 73.4.7 38.9 32.9 70.8 71.6 71.1 13.7.1 22.9-2.1 34.8-8.2 24.4-12.6 39.1-37.1 39-64.9-.1-44.7-40.1-78.7-84.1-71.4zM433.8 87.5c-.2.2-2.8.5-5.8.8-15.9 1.7-30.3 8.9-42.7 21.5-26.5 26.8-27.6 70.3-2.4 98.7 8.7 9.8 21.6 18.1 34.1 21.9 12.4 3.7 30.8 3.5 42-.5 3-1.1 6-2.1 6.5-2.2.6-.2 3.8-1.8 7.3-3.6 16.2-8.7 30.6-27.1 35.2-44.9 1.7-6.5 2-9.9 2.1-19.2.1-16-4.9-31-14.4-43.5-4.7-6.1-13.6-14.2-19.8-18-5.1-3.1-17-8.2-20.9-9-8.1-1.5-20.4-2.7-21.2-2zM121.5 204.7c-29.2 5.2-50.2 22.8-59.6 50-2.6 7.6-3.4 13.9-3.2 24.8.4 18.8 8.1 36.4 21.4 49.2 7.2 6.9 9.3 8.5 16.9 12.6 10.7 5.8 19.7 8 33 8.1 6.3.1 12.9-.2 14.5-.5 5-1.1 11.7-3 13.4-3.9.9-.4 4.1-2.1 7.2-3.6 17.1-8.7 31.2-26.1 36.5-45.1 2.2-7.9 2.7-26.1.9-34.3-5.6-26.4-25.5-47.5-51.7-55-6.8-2-23.7-3.3-29.3-2.3zM554.7 205.7c-30.5 6.3-53.5 30.3-58.2 60.8-2 12.7.5 29.5 6 41.1 8.6 18.1 24.4 32 43.3 38.4 38.1 12.7 78.8-7.5 92-45.7 2.8-8 3.7-14.6 3.5-25.8-.4-25.4-14.6-48.5-37.8-61.5-13.6-7.6-33.1-10.6-48.8-7.3zM330.2 307.2c-17 2.3-35 12.5-52.8 30.3-9.6 9.6-13.4 13.7-23.9 26.4-1.1 1.3-2.5 2.9-3 3.5-.6.6-4.6 5.4-9 10.6-4.4 5.2-8.2 9.7-8.5 10-.3.3-4.3 5-9 10.5s-9.4 11.1-10.6 12.5c-1.2 1.4-5.7 6.5-9.9 11.5-4.3 4.9-15 16.4-23.9 25.5-15 15.3-28 29.5-33.3 36.6-7.8 10.4-9.9 13.4-14.4 21.2-14 24.5-19 52.6-12.8 72.2 11.4 36.1 43.9 63.4 75.4 63.4 8.1 0 21.5-.9 27.6-1.9 1.3-.2 5.1-.6 8.4-1 3.3-.3 6.9-.8 8-1 1.1-.2 4.3-.7 7-1 2.8-.3 6.4-.8 8-1 1.7-.2 5.3-.7 8-1 2.8-.3 8.4-1 12.5-1.5s10.9-1.2 15-1.6c4.1-.4 8.9-.8 10.5-1 25-2.5 74.6-2.4 101.5.1 1.9.2 6.4.6 10 .9 3.6.3 8.1.8 10 1 1.9.3 6.2.8 9.5 1.1 3.3.3 7.4.8 9 1 1.7.3 5 .7 7.5 1 2.5.3 5.4.7 6.5.9 1.1.2 4.9.7 8.5 1.1 3.6.4 7.2.9 8 1 .8.2 4.2.6 7.5.9 3.3.4 8.1.9 10.7 1.2 10.4 1.2 22.3 1.1 27.8-.2 30.3-7 55.7-32.4 65-64.9 1.7-5.8 1.9-9.1 1.6-19.5-.9-26.1-9.6-46.7-31.6-74.5-7.8-9.9-10.3-12.6-30.1-32.9-9.7-10-20.5-21.5-24-25.6-3.5-4.1-6.6-7.7-6.9-8-.3-.3-6.4-7.5-13.5-16s-13.2-15.7-13.5-16c-.3-.3-8.5-9.7-18.1-21-22.5-26.2-33.1-36.4-46.1-44.1-15.7-9.3-23.3-11.2-45.3-11.4-9.3 0-19.8.3-23.3.7z"/></svg>