<?xml version="1.0" encoding="iso-8859-1"?>
<!-- Generator: Adobe Illustrator 19.0.0, SVG Export Plug-In . SVG Version: 6.00 Build 0)  -->
<svg version="1.1" id="Capa_1" xmlns="http://www.w3.org/2000/svg" xmlns:xlink="http://www.w3.org/1999/xlink" x="0px" y="0px"
	 viewBox="0 0 512 512" style="enable-background:new 0 0 512 512;" xml:space="preserve">
<polygon style="fill:#A3021A;" points="108.52,219.819 29.59,313.662 117.617,438.599 211.116,233.206 "/>
<path style="fill:#FF421D;" d="M211.116,144.545C185.381,127.126,89.042,73.401,50.91,73.401c-38.13,0-50.841,32.139-50.841,42.285
	c0,10.144,0,48.626,0,48.626c0,24.504,0,51.141,0,63.825c0,12.68,1.375,44.389,62.258,35.508
	c60.873-8.879,155.733-32.427,155.733-32.427L211.116,144.545z"/>
<path style="fill:#DE0418;" d="M42.032,197.692c-24.098-3.805-43.334,17.481-41.963,30.444c0,12.68,1.375,44.389,62.258,35.508
	c60.873-8.879,148.788-30.438,148.788-30.438C175.606,223.06,66.129,201.499,42.032,197.692z"/>
<polygon style="fill:#A3021A;" points="403.48,219.819 482.41,313.662 394.383,438.599 300.884,233.206 "/>
<path style="fill:#FF421D;" d="M300.884,144.545c25.735-17.418,122.074-71.144,160.206-71.144c38.13,0,50.841,32.139,50.841,42.285
	c0,10.144,0,48.626,0,48.626c0,24.504,0,51.141,0,63.825c0,12.68-1.375,44.389-62.258,35.508
	c-60.873-8.879-155.733-32.427-155.733-32.427L300.884,144.545z"/>
<g>
	<path style="fill:#DE0418;" d="M469.968,197.692c24.098-3.805,43.334,17.481,41.963,30.444c0,12.68-1.375,44.389-62.258,35.508
		c-60.873-8.879-148.788-30.438-148.788-30.438C336.394,223.06,445.871,201.499,469.968,197.692z"/>
	<polygon style="fill:#DE0418;" points="256,140.214 204.374,140.214 211.116,233.206 256,233.206 300.884,233.206 307.626,140.214 
			"/>
</g>
<g>
</g>
<g>
</g>
<g>
</g>
<g>
</g>
<g>
</g>
<g>
</g>
<g>
</g>
<g>
</g>
<g>
</g>
<g>
</g>
<g>
</g>
<g>
</g>
<g>
</g>
<g>
</g>
<g>
</g>
</svg>
